<?xml version="1.0" standalone="no"?>
<!DOCTYPE svg PUBLIC "-//W3C//DTD SVG 20010904//EN"
 "http://www.w3.org/TR/2001/REC-SVG-20010904/DTD/svg10.dtd">
<svg version="1.0" xmlns="http://www.w3.org/2000/svg"
 width="600.000000pt" height="600.000000pt" viewBox="0 0 600.000000 600.000000"
 preserveAspectRatio="xMidYMid meet">
<metadata>
Created by potrace 1.11, written by Peter Selinger 2001-2013
</metadata>
<g transform="translate(0.000000,600.000000) scale(0.100000,-0.100000)"
fill="#000000" stroke="none">
<path d="M2750 4690 l0 -370 560 0 560 0 2 -1707 3 -1708 443 -3 442 -2 0
1710 0 1710 565 0 565 0 0 370 0 370 -1570 0 -1570 0 0 -370z"/>
<path d="M2020 4124 c-268 -57 -537 -247 -690 -487 -32 -51 -62 -86 -72 -87
-13 0 -28 48 -78 258 -34 141 -63 263 -65 270 -3 9 -79 12 -335 12 l-330 0 0
-1595 0 -1595 435 0 435 0 0 818 c0 812 5 944 36 1066 63 247 259 435 529 505
157 41 395 48 545 15 l25 -5 33 407 c18 224 31 409 29 411 -25 25 -391 30
-497 7z"/>
</g>
</svg>
