<?xml version="1.0" standalone="no"?>
<!DOCTYPE svg PUBLIC "-//W3C//DTD SVG 20010904//EN"
 "http://www.w3.org/TR/2001/REC-SVG-20010904/DTD/svg10.dtd">
<svg version="1.0" xmlns="http://www.w3.org/2000/svg"
 width="512.000000pt" height="512.000000pt" viewBox="0 0 512.000000 512.000000"
 preserveAspectRatio="xMidYMid meet">
<metadata>
Created by potrace 1.14, written by Peter Selinger 2001-2017
</metadata>
<g transform="translate(0.000000,512.000000) scale(0.100000,-0.100000)"
fill="#000000" stroke="none">
<path d="M0 2560 l0 -2560 2560 0 2560 0 0 2560 0 2560 -2560 0 -2560 0 0
-2560z m3800 1800 c260 -63 454 -242 547 -505 l28 -80 0 -1215 0 -1215 -28
-80 c-93 -263 -287 -442 -547 -505 -83 -19 -113 -20 -1240 -20 -1127 0 -1157
1 -1240 20 -271 65 -483 271 -557 540 -17 61 -18 144 -18 1260 0 1116 1 1199
18 1260 74 267 285 473 553 539 76 19 124 20 1239 20 1133 1 1162 0 1245 -19z"/>
<path d="M1420 4080 c-170 -31 -293 -135 -361 -305 l-24 -60 -3 -1110 c-2
-698 1 -1134 7 -1174 27 -175 149 -318 321 -377 53 -18 104 -19 1200 -19 1096
0 1147 1 1200 19 150 51 255 156 306 306 18 53 19 104 19 1200 0 1096 -1 1147
-19 1200 -50 146 -142 241 -291 301 l-60 24 -1125 1 c-619 1 -1145 -2 -1170
-6z m1605 -771 c116 -21 212 -95 261 -202 l29 -62 0 -485 0 -485 -29 -62 c-66
-144 -219 -227 -373 -203 -45 7 -156 58 -508 233 -486 242 -508 257 -562 359
-25 48 -28 62 -28 158 0 96 3 110 28 158 53 101 77 117 551 354 390 196 499
244 557 247 8 1 42 -4 74 -10z"/>
<path d="M2528 2810 c-301 -151 -418 -215 -423 -230 -15 -48 -5 -55 426 -270
230 -116 427 -210 437 -210 11 0 26 8 35 18 15 17 17 62 17 444 0 399 -1 426
-18 441 -10 10 -27 17 -38 16 -10 0 -207 -94 -436 -209z"/>
</g>
</svg>
