<svg xmlns="http://www.w3.org/2000/svg" xmlns:xlink="http://www.w3.org/1999/xlink">
  <defs>
    <symbol id="gallery-line" viewBox="0 0 24 24"><path d="M20 13C18.3221 13 16.7514 13.4592 15.4068 14.2587C16.5908 15.6438 17.5269 17.2471 18.1465 19H20V13ZM16.0037 19C14.0446 14.3021 9.4079 11 4 11V19H16.0037ZM4 9C7.82914 9 11.3232 10.4348 13.9738 12.7961C15.7047 11.6605 17.7752 11 20 11V3H21.0082C21.556 3 22 3.44495 22 3.9934V20.0066C22 20.5552 21.5447 21 21.0082 21H2.9918C2.44405 21 2 20.5551 2 20.0066V3.9934C2 3.44476 2.45531 3 2.9918 3H6V1H8V5H4V9ZM18 1V5H10V3H16V1H18ZM16.5 10C15.6716 10 15 9.32843 15 8.5C15 7.67157 15.6716 7 16.5 7C17.3284 7 18 7.67157 18 8.5C18 9.32843 17.3284 10 16.5 10Z"></path></symbol>
    <symbol id="video-line" viewBox="0 0 24 24"><path d="M3 3.9934C3 3.44476 3.44495 3 3.9934 3H20.0066C20.5552 3 21 3.44495 21 3.9934V20.0066C21 20.5552 20.5551 21 20.0066 21H3.9934C3.44476 21 3 20.5551 3 20.0066V3.9934ZM5 5V19H19V5H5ZM10.6219 8.41459L15.5008 11.6672C15.6846 11.7897 15.7343 12.0381 15.6117 12.2219C15.5824 12.2658 15.5447 12.3035 15.5008 12.3328L10.6219 15.5854C10.4381 15.708 10.1897 15.6583 10.0672 15.4745C10.0234 15.4088 10 15.3316 10 15.2526V8.74741C10 8.52649 10.1791 8.34741 10.4 8.34741C10.479 8.34741 10.5562 8.37078 10.6219 8.41459Z"></path></symbol>
    <symbol id="lifebuoy-line" viewBox="0 0 24 24"><path d="M12 2C17.5228 2 22 6.47715 22 12C22 17.5228 17.5228 22 12 22C6.47715 22 2 17.5228 2 12C2 6.47715 6.47715 2 12 2ZM12 17C11.355 17 10.7386 16.8779 10.1725 16.6555L7.93604 18.8923C9.12707 19.5961 10.5164 20 12 20C13.4836 20 14.8729 19.5961 16.064 18.8923L13.8275 16.6555C13.2614 16.8779 12.645 17 12 17ZM4 12C4 13.4836 4.40386 14.8729 5.10765 16.064L7.34451 13.8275C7.12213 13.2614 7 12.645 7 12C7 11.355 7.12213 10.7386 7.34451 10.1725L5.10765 7.93604C4.40386 9.12707 4 10.5164 4 12ZM18.8923 7.93604L16.6555 10.1725C16.8779 10.7386 17 11.355 17 12C17 12.645 16.8779 13.2614 16.6555 13.8275L18.8923 16.064C19.5961 14.8729 20 13.4836 20 12C20 10.5164 19.5961 9.12707 18.8923 7.93604ZM12 9C10.3431 9 9 10.3431 9 12C9 13.6569 10.3431 15 12 15C13.6569 15 15 13.6569 15 12C15 10.3431 13.6569 9 12 9ZM12 4C10.5164 4 9.12707 4.40386 7.93604 5.10765L10.1725 7.34451C10.7386 7.12213 11.355 7 12 7C12.645 7 13.2614 7.12213 13.8275 7.34451L16.064 5.10765C14.8729 4.40386 13.4836 4 12 4Z"></path></symbol>
    <symbol id="hand-coin-line" viewBox="0 0 24 24"><path d="M5.00488 9.00293C5.55717 9.00293 6.00488 9.45064 6.00488 10.0029C7.63965 10.0029 9.14352 10.5633 10.3349 11.5025L12.5049 11.5029C13.8375 11.5029 15.0348 12.0822 15.8588 13.0027L19.0049 13.0029C20.9972 13.0029 22.7173 14.1682 23.521 15.8543C21.1562 18.975 17.3268 21.0029 13.0049 21.0029C10.2142 21.0029 7.85466 20.3997 5.944 19.345C5.80557 19.7285 5.43727 20.0029 5.00488 20.0029H2.00488C1.4526 20.0029 1.00488 19.5552 1.00488 19.0029V10.0029C1.00488 9.45064 1.4526 9.00293 2.00488 9.00293H5.00488ZM6.00589 12.0029L6.00488 17.0249L6.05024 17.0574C7.84406 18.3178 10.183 19.0029 13.0049 19.0029C16.0089 19.0029 18.8035 17.8473 20.84 15.8735L20.9729 15.7399L20.8537 15.6395C20.3897 15.2765 19.8205 15.0513 19.2099 15.0099L19.0049 15.0029L16.8934 15.003C16.9664 15.3246 17.0049 15.6593 17.0049 16.0029V17.0029H8.00488V15.0029L14.7949 15.0019L14.7605 14.9235C14.38 14.1299 13.593 13.5682 12.6693 13.5082L12.5049 13.5029L9.57547 13.5028C8.66823 12.5774 7.40412 12.0032 6.00589 12.0029ZM4.00488 11.0029H3.00488V18.0029H4.00488V11.0029ZM18.0049 5.00293C19.6617 5.00293 21.0049 6.34608 21.0049 8.00293C21.0049 9.65978 19.6617 11.0029 18.0049 11.0029C16.348 11.0029 15.0049 9.65978 15.0049 8.00293C15.0049 6.34608 16.348 5.00293 18.0049 5.00293ZM18.0049 7.00293C17.4526 7.00293 17.0049 7.45064 17.0049 8.00293C17.0049 8.55521 17.4526 9.00293 18.0049 9.00293C18.5572 9.00293 19.0049 8.55521 19.0049 8.00293C19.0049 7.45064 18.5572 7.00293 18.0049 7.00293ZM11.0049 2.00293C12.6617 2.00293 14.0049 3.34608 14.0049 5.00293C14.0049 6.65978 12.6617 8.00293 11.0049 8.00293C9.34803 8.00293 8.00488 6.65978 8.00488 5.00293C8.00488 3.34608 9.34803 2.00293 11.0049 2.00293ZM11.0049 4.00293C10.4526 4.00293 10.0049 4.45064 10.0049 5.00293C10.0049 5.55521 10.4526 6.00293 11.0049 6.00293C11.5572 6.00293 12.0049 5.55521 12.0049 5.00293C12.0049 4.45064 11.5572 4.00293 11.0049 4.00293Z"></path></symbol>
    <symbol id="questionnaire-line" viewBox="0 0 24 24"><path d="M5.76282 17H20V5H4V18.3851L5.76282 17ZM6.45455 19L2 22.5V4C2 3.44772 2.44772 3 3 3H21C21.5523 3 22 3.44772 22 4V18C22 18.5523 21.5523 19 21 19H6.45455ZM11 14H13V16H11V14ZM8.56731 8.81346C8.88637 7.20919 10.302 6 12 6C13.933 6 15.5 7.567 15.5 9.5C15.5 11.433 13.933 13 12 13H11V11H12C12.8284 11 13.5 10.3284 13.5 9.5C13.5 8.67157 12.8284 8 12 8C11.2723 8 10.6656 8.51823 10.5288 9.20577L8.56731 8.81346Z"></path></symbol>
    
    <symbol id="home-line" viewBox="0 0 24 24"><path fill="none" d="M0 0h24v24H0z"></path><path d="M21 19.9997C21 20.552 20.5523 20.9997 20 20.9997H4C3.44772 20.9997 3 20.552 3 19.9997V9.48882C3 9.18023 3.14247 8.88893 3.38606 8.69947L11.3861 2.47725C11.7472 2.19639 12.2528 2.19639 12.6139 2.47725L20.6139 8.69947C20.8575 8.88893 21 9.18023 21 9.48882V19.9997ZM19 18.9997V9.97791L12 4.53346L5 9.97791V18.9997H19Z"></path></symbol>
    <symbol id="hashtag" viewBox="0 0 24 24"><path fill="none" d="M0 0h24v24H0z"></path><path d="M7.78428 14L8.2047 10H4V8H8.41491L8.94043 3H10.9514L10.4259 8H14.4149L14.9404 3H16.9514L16.4259 8H20V10H16.2157L15.7953 14H20V16H15.5851L15.0596 21H13.0486L13.5741 16H9.58509L9.05957 21H7.04855L7.57407 16H4V14H7.78428ZM9.7953 14H13.7843L14.2047 10H10.2157L9.7953 14Z"></path></symbol>
    <symbol id="line-chart-fill" viewBox="0 0 24 24"><path fill="none" d="M0 0h24v24H0z"></path><path d="M5 3V19H21V21H3V3H5ZM19.9393 5.93934L22.0607 8.06066L16 14.1213L13 11.121L9.06066 15.0607L6.93934 12.9393L13 6.87868L16 9.879L19.9393 5.93934Z"></path></symbol>
    
    <symbol id="arrow-left-s-line" viewBox="0 0 24 24"><path fill="none" d="M0 0h24v24H0z"></path><path d="M10.8284 12.0007L15.7782 16.9504L14.364 18.3646L8 12.0007L14.364 5.63672L15.7782 7.05093L10.8284 12.0007Z"></path></symbol>

    <symbol id="search-line" viewBox="0 0 24 24"><path fill="none" d="M0 0h24v24H0z"></path><path d="M18.031 16.6168L22.3137 20.8995L20.8995 22.3137L16.6168 18.031C15.0769 19.263 13.124 20 11 20C6.032 20 2 15.968 2 11C2 6.032 6.032 2 11 2C15.968 2 20 6.032 20 11C20 13.124 19.263 15.0769 18.031 16.6168ZM16.0247 15.8748C17.2475 14.6146 18 12.8956 18 11C18 7.1325 14.8675 4 11 4C7.1325 4 4 7.1325 4 11C4 14.8675 7.1325 18 11 18C12.8956 18 14.6146 17.2475 15.8748 16.0247L16.0247 15.8748Z"></path></symbol>
    <symbol id="refresh-line" viewBox="0 0 24 24"><path fill="none" d="M0 0h24v24H0z"></path><path d="M5.46257 4.43262C7.21556 2.91688 9.5007 2 12 2C17.5228 2 22 6.47715 22 12C22 14.1361 21.3302 16.1158 20.1892 17.7406L17 12H20C20 7.58172 16.4183 4 12 4C9.84982 4 7.89777 4.84827 6.46023 6.22842L5.46257 4.43262ZM18.5374 19.5674C16.7844 21.0831 14.4993 22 12 22C6.47715 22 2 17.5228 2 12C2 9.86386 2.66979 7.88416 3.8108 6.25944L7 12H4C4 16.4183 7.58172 20 12 20C14.1502 20 16.1022 19.1517 17.5398 17.7716L18.5374 19.5674Z"></path></symbol>
    <symbol id="refresh-fill" viewBox="0 0 24 24"><path fill="none" d="M0 0h24v24H0z"></path><path d="M5.46257 4.43262C7.21556 2.91688 9.5007 2 12 2C17.5228 2 22 6.47715 22 12C22 14.1361 21.3302 16.1158 20.1892 17.7406L17 12H20C20 7.58172 16.4183 4 12 4C9.84982 4 7.89777 4.84827 6.46023 6.22842L5.46257 4.43262ZM18.5374 19.5674C16.7844 21.0831 14.4993 22 12 22C6.47715 22 2 17.5228 2 12C2 9.86386 2.66979 7.88416 3.8108 6.25944L7 12H4C4 16.4183 7.58172 20 12 20C14.1502 20 16.1022 19.1517 17.5398 17.7716L18.5374 19.5674Z"></path></symbol>
    
    <symbol id="sun-line" viewBox="0 0 24 24"><path fill="none" d="M0 0h24v24H0z"></path><path d="M12 18C8.68629 18 6 15.3137 6 12C6 8.68629 8.68629 6 12 6C15.3137 6 18 8.68629 18 12C18 15.3137 15.3137 18 12 18ZM12 16C14.2091 16 16 14.2091 16 12C16 9.79086 14.2091 8 12 8C9.79086 8 8 9.79086 8 12C8 14.2091 9.79086 16 12 16ZM11 1H13V4H11V1ZM11 20H13V23H11V20ZM3.51472 4.92893L4.92893 3.51472L7.05025 5.63604L5.63604 7.05025L3.51472 4.92893ZM16.9497 18.364L18.364 16.9497L20.4853 19.0711L19.0711 20.4853L16.9497 18.364ZM19.0711 3.51472L20.4853 4.92893L18.364 7.05025L16.9497 5.63604L19.0711 3.51472ZM5.63604 16.9497L7.05025 18.364L4.92893 20.4853L3.51472 19.0711L5.63604 16.9497ZM23 11V13H20V11H23ZM4 11V13H1V11H4Z"></path></symbol>
    <symbol id="moon-line" viewBox="0 0 24 24"><path fill="none" d="M0 0h24v24H0z"></path><path d="M10 7C10 10.866 13.134 14 17 14C18.9584 14 20.729 13.1957 21.9995 11.8995C22 11.933 22 11.9665 22 12C22 17.5228 17.5228 22 12 22C6.47715 22 2 17.5228 2 12C2 6.47715 6.47715 2 12 2C12.0335 2 12.067 2 12.1005 2.00049C10.8043 3.27098 10 5.04157 10 7ZM4 12C4 16.4183 7.58172 20 12 20C15.0583 20 17.7158 18.2839 19.062 15.7621C18.3945 15.9187 17.7035 16 17 16C12.0294 16 8 11.9706 8 7C8 6.29648 8.08133 5.60547 8.2379 4.938C5.71611 6.28423 4 8.9417 4 12Z"></path></symbol>

    <symbol id="play-fill" viewBox="0 0 24 24"><path d="M19.376 12.4158L8.77735 19.4816C8.54759 19.6348 8.23715 19.5727 8.08397 19.3429C8.02922 19.2608 8 19.1643 8 19.0656V4.93408C8 4.65794 8.22386 4.43408 8.5 4.43408C8.59871 4.43408 8.69522 4.4633 8.77735 4.51806L19.376 11.5838C19.6057 11.737 19.6678 12.0474 19.5146 12.2772C19.478 12.3321 19.4309 12.3792 19.376 12.4158Z"></path></symbol>
    <symbol id="play-line" viewBox="0 0 24 24"><path d="M16.3944 11.9998L10 7.73686V16.2628L16.3944 11.9998ZM19.376 12.4158L8.77735 19.4816C8.54759 19.6348 8.23715 19.5727 8.08397 19.3429C8.02922 19.2608 8 19.1643 8 19.0656V4.93408C8 4.65794 8.22386 4.43408 8.5 4.43408C8.59871 4.43408 8.69522 4.4633 8.77735 4.51806L19.376 11.5838C19.6057 11.737 19.6678 12.0474 19.5146 12.2772C19.478 12.3321 19.4309 12.3792 19.376 12.4158Z"></path></symbol>
    <symbol id="pause-fill" viewBox="0 0 24 24"><path d="M6 5H8V19H6V5ZM16 5H18V19H16V5Z"></path></symbol>
    <symbol id="pause-line" viewBox="0 0 24 24"><path d="M6 5H8V19H6V5ZM16 5H18V19H16V5Z"></path></symbol>
    <symbol id="skip-back-fill" viewBox="0 0 24 24"><path d="M8 11.3333L18.2227 4.51823C18.4524 4.36506 18.7628 4.42714 18.916 4.65691C18.9708 4.73904 19 4.83555 19 4.93426V19.0657C19 19.3419 18.7761 19.5657 18.5 19.5657C18.4013 19.5657 18.3048 19.5365 18.2227 19.4818L8 12.6667V19C8 19.5523 7.55228 20 7 20C6.44772 20 6 19.5523 6 19V5C6 4.44772 6.44772 4 7 4C7.55228 4 8 4.44772 8 5V11.3333Z"></path></symbol>
    <symbol id="skip-back-line" viewBox="0 0 24 24"><path d="M7 4C7.55228 4 8 4.44772 8 5V11.3333L18.2227 4.51823C18.4524 4.36506 18.7628 4.42714 18.916 4.65691C18.9708 4.73904 19 4.83555 19 4.93426V19.0657C19 19.3419 18.7761 19.5657 18.5 19.5657C18.4013 19.5657 18.3048 19.5365 18.2227 19.4818L8 12.6667V19C8 19.5523 7.55228 20 7 20C6.44772 20 6 19.5523 6 19V5C6 4.44772 6.44772 4 7 4ZM17 7.73703L10.6056 12L17 16.263V7.73703Z"></path></symbol>
    <symbol id="skip-forward-fill" viewBox="0 0 24 24"><path d="M16 12.6667L5.77735 19.4818C5.54759 19.6349 5.23715 19.5729 5.08397 19.3431C5.02922 19.261 5 19.1645 5 19.0657V4.93426C5 4.65812 5.22386 4.43426 5.5 4.43426C5.59871 4.43426 5.69522 4.46348 5.77735 4.51823L16 11.3333V5C16 4.44772 16.4477 4 17 4C17.5523 4 18 4.44772 18 5V19C18 19.5523 17.5523 20 17 20C16.4477 20 16 19.5523 16 19V12.6667Z"></path></symbol>
    <symbol id="skip-forward-line" viewBox="0 0 24 24"><path d="M16 12.6667L5.77735 19.4818C5.54759 19.6349 5.23715 19.5729 5.08397 19.3431C5.02922 19.261 5 19.1645 5 19.0657V4.93426C5 4.65812 5.22386 4.43426 5.5 4.43426C5.59871 4.43426 5.69522 4.46348 5.77735 4.51823L16 11.3333V5C16 4.44772 16.4477 4 17 4C17.5523 4 18 4.44772 18 5V19C18 19.5523 17.5523 20 17 20C16.4477 20 16 19.5523 16 19V12.6667ZM7 7.73703V16.263L13.3944 12L7 7.73703Z"></path></symbol>

    <symbol id="repeat-line" viewBox="0 0 24 24"><path fill="none" d="M0 0h24v24H0z"></path><path d="M8 19.9998V21.9323C8 22.2085 7.77614 22.4323 7.5 22.4323C7.38303 22.4323 7.26977 22.3913 7.17991 22.3164L3.06093 18.8839C2.84879 18.7072 2.82013 18.3919 2.99691 18.1797C3.09191 18.0657 3.23264 17.9998 3.38103 17.9998L18 17.9998C19.1046 17.9998 20 17.1044 20 15.9998V7.99985H22V15.9998C22 18.209 20.2091 19.9998 18 19.9998H8ZM16 3.99985V2.06738C16 1.79124 16.2239 1.56738 16.5 1.56738C16.617 1.56738 16.7302 1.60839 16.8201 1.68327L20.9391 5.11575C21.1512 5.29253 21.1799 5.60782 21.0031 5.81995C20.9081 5.93395 20.7674 5.99986 20.619 5.99986L6 5.99985C4.89543 5.99985 4 6.89528 4 7.99985V15.9998H2V7.99985C2 5.79071 3.79086 3.99985 6 3.99985H16Z"></path></symbol>
    <symbol id="repeat-fill" viewBox="0 0 24 24"><path d="M8 19.9999V21.9323C8 22.2085 7.77614 22.4323 7.5 22.4323C7.38303 22.4323 7.26977 22.3913 7.17991 22.3165L3.06093 18.884C2.84879 18.7072 2.82013 18.3919 2.99691 18.1798C3.09191 18.0658 3.23264 17.9999 3.38103 17.9999L18 17.9999C19.1046 17.9999 20 17.1044 20 15.9999V7.99987H22V15.9999C22 18.209 20.2091 19.9999 18 19.9999H8ZM16 3.99987V2.06738C16 1.79124 16.2239 1.56738 16.5 1.56738C16.617 1.56738 16.7302 1.60839 16.8201 1.68327L20.9391 5.11575C21.1512 5.29253 21.1799 5.60782 21.0031 5.81995C20.9081 5.93395 20.7674 5.99986 20.619 5.99986L6 5.99987C4.89543 5.99987 4 6.89531 4 7.99987V15.9999H2V7.99987C2 5.79074 3.79086 3.99987 6 3.99987H16Z"></path></symbol>
    
    <symbol id="file-info-line" viewBox="0 0 24 24"><path d="M15 4H5V20H19V8H15V4ZM3 2.9918C3 2.44405 3.44749 2 3.9985 2H16L20.9997 7L21 20.9925C21 21.5489 20.5551 22 20.0066 22H3.9934C3.44476 22 3 21.5447 3 21.0082V2.9918ZM11 11H13V17H11V11ZM11 7H13V9H11V7Z"></path></symbol>
    <symbol id="play-list-line" viewBox="0 0 24 24"><path d="M22 18V20H2V18H22ZM2 3.5L10 8.5L2 13.5V3.5ZM22 11V13H12V11H22ZM4 7.1085V9.8915L6.22641 8.5L4 7.1085ZM22 4V6H12V4H22Z"></path></symbol>
    <symbol id="play-list-fill" viewBox="0 0 24 24"><path d="M22 18V20H2V18H22ZM2 3.5L10 8.5L2 13.5V3.5ZM22 11V13H12V11H22ZM22 4V6H12V4H22Z"></path></symbol>

    <symbol id="close-circle-line" viewBox="0 0 24 24"><path fill="none" d="M0 0h24v24H0z"></path><path d="M12 22C6.47715 22 2 17.5228 2 12C2 6.47715 6.47715 2 12 2C17.5228 2 22 6.47715 22 12C22 17.5228 17.5228 22 12 22ZM12 20C16.4183 20 20 16.4183 20 12C20 7.58172 16.4183 4 12 4C7.58172 4 4 7.58172 4 12C4 16.4183 7.58172 20 12 20ZM12 10.5858L14.8284 7.75736L16.2426 9.17157L13.4142 12L16.2426 14.8284L14.8284 16.2426L12 13.4142L9.17157 16.2426L7.75736 14.8284L10.5858 12L7.75736 9.17157L9.17157 7.75736L12 10.5858Z"></path></symbol>
    <symbol id="error-warning-line" viewBox="0 0 24 24"><path fill="none" d="M0 0h24v24H0z"></path><path d="M12 22C6.47715 22 2 17.5228 2 12C2 6.47715 6.47715 2 12 2C17.5228 2 22 6.47715 22 12C22 17.5228 17.5228 22 12 22ZM12 20C16.4183 20 20 16.4183 20 12C20 7.58172 16.4183 4 12 4C7.58172 4 4 7.58172 4 12C4 16.4183 7.58172 20 12 20ZM11 15H13V17H11V15ZM11 7H13V13H11V7Z"></path></symbol>
    <symbol id="link" viewBox="0 0 24 24"><path fill="none" d="M0 0h24v24H0z"></path><path d="M18.3643 15.5353L16.95 14.1211L18.3643 12.7069C20.3169 10.7543 20.3169 7.58847 18.3643 5.63585C16.4116 3.68323 13.2458 3.68323 11.2932 5.63585L9.87898 7.05007L8.46477 5.63585L9.87898 4.22164C12.6127 1.48797 17.0448 1.48797 19.7785 4.22164C22.5121 6.95531 22.5121 11.3875 19.7785 14.1211L18.3643 15.5353ZM15.5358 18.3638L14.1216 19.778C11.388 22.5117 6.9558 22.5117 4.22213 19.778C1.48846 17.0443 1.48846 12.6122 4.22213 9.87849L5.63634 8.46428L7.05055 9.87849L5.63634 11.2927C3.68372 13.2453 3.68372 16.4112 5.63634 18.3638C7.58896 20.3164 10.7548 20.3164 12.7074 18.3638L14.1216 16.9496L15.5358 18.3638ZM14.8287 7.75717L16.2429 9.17139L9.17187 16.2425L7.75766 14.8282L14.8287 7.75717Z"></path></symbol>

    <symbol id="heart-line" viewBox="0 0 24 24"><path fill="none" d="M0 0h24v24H0z"></path><path d="M20.2426 4.75736C22.5053 7.02472 22.583 10.637 20.4786 12.993L11.9999 21.485L3.52138 12.993C1.41705 10.637 1.49571 7.01901 3.75736 4.75736C6.02157 2.49315 9.64519 2.41687 12.001 4.52853C14.35 2.42 17.98 2.49 20.2426 4.75736ZM5.17157 6.17157C3.68183 7.66131 3.60704 10.0473 4.97993 11.6232L11.9999 18.6543L19.0201 11.6232C20.3935 10.0467 20.319 7.66525 18.827 6.1701C17.3397 4.67979 14.9458 4.60806 13.3743 5.98376L9.17157 10.1869L7.75736 8.77264L10.582 5.946L10.5002 5.87701C8.92545 4.61197 6.62322 4.71993 5.17157 6.17157Z"></path></symbol>
    <symbol id="heart-fill" viewBox="0 0 24 24"><path fill="none" d="M0 0h24v24H0z"></path><path d="M20.2426 4.75736C22.5053 7.02472 22.583 10.637 20.4786 12.993L11.9999 21.485L3.52138 12.993C1.41705 10.637 1.49571 7.01901 3.75736 4.75736C5.51545 2.99926 8.09315 2.56029 10.2605 3.44044L6.34315 7.35843L7.75736 8.77264L12 4.53L11.9872 4.51617C11.9918 4.52028 11.9964 4.5244 12.001 4.52853C14.35 2.42 17.98 2.49 20.2426 4.75736Z"></path></symbol>

    <symbol id="order-play-fill" viewBox="0 0 24 24"><path fill="none" d="M0 0h24v24H0z"></path><path d="M17 3.99986V2.06738C17 1.79124 17.2239 1.56738 17.5 1.56738C17.617 1.56738 17.7302 1.60839 17.8201 1.68327L21.9391 5.11575C22.1512 5.29253 22.1799 5.60782 22.0031 5.81995C21.9081 5.93395 21.7674 5.99986 21.619 5.99986H2V3.99986H17ZM2 17.9999H22V19.9999H2V17.9999ZM2 10.9999H22V12.9999H2V10.9999Z"></path></symbol>
    
    <symbol id="download-line" viewBox="0 0 24 24"><path fill="none" d="M0 0h24v24H0z"></path><path d="M13 10H18L12 16L6 10H11V3H13V10ZM4 19H20V12H22V20C22 20.5523 21.5523 21 21 21H3C2.44772 21 2 20.5523 2 20V12H4V19Z"></path></symbol>
    <symbol id="download-fill" viewBox="0 0 24 24"><path d="M4 19H20V12H22V20C22 20.5523 21.5523 21 21 21H3C2.44772 21 2 20.5523 2 20V12H4V19ZM14 9H19L12 16L5 9H10V3H14V9Z"></path></symbol>
   
    <symbol id="external-link-fill" viewBox="0 0 24 24"><path d="M10 6V8H5V19H16V14H18V20C18 20.5523 17.5523 21 17 21H4C3.44772 21 3 20.5523 3 20V7C3 6.44772 3.44772 6 4 6H10ZM21 3V12L17.206 8.207L11.2071 14.2071L9.79289 12.7929L15.792 6.793L12 3H21Z"></path></symbol>
    <symbol id="fullscreen-fill" viewBox="0 0 24 24"><path fill="none" d="M0 0h24v24H0z"></path><path d="M16 3H22V9H20V5H16V3ZM2 3H8V5H4V9H2V3ZM20 19V15H22V21H16V19H20ZM4 19H8V21H2V15H4V19Z"></path></symbol>
    <symbol id="picture-in-picture-fill" viewBox="0 0 24 24"><path fill="none" d="M0 0h24v24H0z"></path><path d="M21 3C21.5523 3 22 3.44772 22 4V11H20V5H4V19H10V21H3C2.44772 21 2 20.5523 2 20V4C2 3.44772 2.44772 3 3 3H21ZM21 13C21.5523 13 22 13.4477 22 14V20C22 20.5523 21.5523 21 21 21H13C12.4477 21 12 20.5523 12 20V14C12 13.4477 12.4477 13 13 13H21Z"></path></symbol>
    
    <symbol id="speed-up-line" viewBox="0 0 24 24"><path fill="none" d="M0 0h24v24H0z"></path><path d="M20 13C20 15.2091 19.1046 17.2091 17.6569 18.6569L19.0711 20.0711C20.8807 18.2614 22 15.7614 22 13 22 7.47715 17.5228 3 12 3 6.47715 3 2 7.47715 2 13 2 15.7614 3.11929 18.2614 4.92893 20.0711L6.34315 18.6569C4.89543 17.2091 4 15.2091 4 13 4 8.58172 7.58172 5 12 5 16.4183 5 20 8.58172 20 13ZM15.293 8.29297 10.793 12.793 12.2072 14.2072 16.7072 9.70718 15.293 8.29297Z"></path></symbol>
    <symbol id="speed-up-fill" viewBox="0 0 24 24"><path fill="none" d="M0 0h24v24H0z"></path><path d="M20 13C20 15.2091 19.1046 17.2091 17.6569 18.6569L19.0711 20.0711C20.8807 18.2614 22 15.7614 22 13 22 7.47715 17.5228 3 12 3 6.47715 3 2 7.47715 2 13 2 15.7614 3.11929 18.2614 4.92893 20.0711L6.34315 18.6569C4.89543 17.2091 4 15.2091 4 13 4 8.58172 7.58172 5 12 5 16.4183 5 20 8.58172 20 13ZM15.293 8.29297 10.5 12.5 12.5 14.5 16.7072 9.70718 15.293 8.29297Z"></path></symbol>

    <symbol id="filter-fill" viewBox="0 0 24 24"><path fill="none" d="M0 0h24v24H0z"></path><path d="M10 18H14V16H10V18ZM3 6V8H21V6H3ZM6 13H18V11H6V13Z"></path></symbol>
    <symbol id="filter-line" viewBox="0 0 24 24"><path fill="none" d="M0 0h24v24H0z"></path><path d="M10 18H14V16H10V18ZM3 6V8H21V6H3ZM6 13H18V11H6V13Z"></path></symbol>
    <symbol id="keyboard-box-line" viewBox="0 0 24 24"><path fill="none" d="M0 0h24v24H0z"></path><path d="M4 5V19H20V5H4ZM3 3H21C21.5523 3 22 3.44772 22 4V20C22 20.5523 21.5523 21 21 21H3C2.44772 21 2 20.5523 2 20V4C2 3.44772 2.44772 3 3 3ZM6 7H8V9H6V7ZM6 11H8V13H6V11ZM6 15H18V17H6V15ZM11 11H13V13H11V11ZM11 7H13V9H11V7ZM16 7H18V9H16V7ZM16 11H18V13H16V11Z"></path></symbol>
    <symbol id="eye-line" viewBox="0 0 24 24"><path fill="none" d="M0 0h24v24H0z"></path><path d="M12.0003 3C17.3924 3 21.8784 6.87976 22.8189 12C21.8784 17.1202 17.3924 21 12.0003 21C6.60812 21 2.12215 17.1202 1.18164 12C2.12215 6.87976 6.60812 3 12.0003 3ZM12.0003 19C16.2359 19 19.8603 16.052 20.7777 12C19.8603 7.94803 16.2359 5 12.0003 5C7.7646 5 4.14022 7.94803 3.22278 12C4.14022 16.052 7.7646 19 12.0003 19ZM12.0003 16.5C9.51498 16.5 7.50026 14.4853 7.50026 12C7.50026 9.51472 9.51498 7.5 12.0003 7.5C14.4855 7.5 16.5003 9.51472 16.5003 12C16.5003 14.4853 14.4855 16.5 12.0003 16.5ZM12.0003 14.5C13.381 14.5 14.5003 13.3807 14.5003 12C14.5003 10.6193 13.381 9.5 12.0003 9.5C10.6196 9.5 9.50026 10.6193 9.50026 12C9.50026 13.3807 10.6196 14.5 12.0003 14.5Z"></path></symbol>
    <symbol id="palette-line" viewBox="0 0 24 24"><path fill="none" d="M0 0h24v24H0z"></path><path d="M12 2C17.5222 2 22 5.97778 22 10.8889C22 13.9556 19.5111 16.4444 16.4444 16.4444H14.4778C13.5556 16.4444 12.8111 17.1889 12.8111 18.1111C12.8111 18.5333 12.9778 18.9222 13.2333 19.2111C13.5 19.5111 13.6667 19.9 13.6667 20.3333C13.6667 21.2556 12.9 22 12 22C6.47778 22 2 17.5222 2 12C2 6.47778 6.47778 2 12 2ZM10.8111 18.1111C10.8111 16.0843 12.451 14.4444 14.4778 14.4444H16.4444C18.4065 14.4444 20 12.851 20 10.8889C20 7.1392 16.4677 4 12 4C7.58235 4 4 7.58235 4 12C4 16.19 7.2226 19.6285 11.324 19.9718C10.9948 19.4168 10.8111 18.7761 10.8111 18.1111ZM7.5 12C6.67157 12 6 11.3284 6 10.5C6 9.67157 6.67157 9 7.5 9C8.32843 9 9 9.67157 9 10.5C9 11.3284 8.32843 12 7.5 12ZM16.5 12C15.6716 12 15 11.3284 15 10.5C15 9.67157 15.6716 9 16.5 9C17.3284 9 18 9.67157 18 10.5C18 11.3284 17.3284 12 16.5 12ZM12 9C11.1716 9 10.5 8.32843 10.5 7.5C10.5 6.67157 11.1716 6 12 6C12.8284 6 13.5 6.67157 13.5 7.5C13.5 8.32843 12.8284 9 12 9Z"></path></symbol>
    
    <symbol id="rhythm-fill" viewBox="0 0 24 24"><path fill="none" d="M0 0h24v24H0z"></path><path d="M2 9H4V21H2V9ZM8 3H10V21H8V3ZM14 12H16V21H14V12ZM20 6H22V21H20V6Z"></path></symbol>

    <symbol id="volume-up-fill" viewBox="0 0 24 24"><path fill="none" d="M0 0h24v24H0z"></path><path d="M2 16.0001H5.88889L11.1834 20.3319C11.2727 20.405 11.3846 20.4449 11.5 20.4449C11.7761 20.4449 12 20.2211 12 19.9449V4.05519C12 3.93977 11.9601 3.8279 11.887 3.73857C11.7121 3.52485 11.3971 3.49335 11.1834 3.66821L5.88889 8.00007H2C1.44772 8.00007 1 8.44778 1 9.00007V15.0001C1 15.5524 1.44772 16.0001 2 16.0001ZM23 12C23 15.292 21.5539 18.2463 19.2622 20.2622L17.8445 18.8444C19.7758 17.1937 21 14.7398 21 12C21 9.26016 19.7758 6.80629 17.8445 5.15557L19.2622 3.73779C21.5539 5.75368 23 8.70795 23 12ZM18 12C18 10.0883 17.106 8.38548 15.7133 7.28673L14.2842 8.71584C15.3213 9.43855 16 10.64 16 12C16 13.36 15.3213 14.5614 14.2842 15.2841L15.7133 16.7132C17.106 15.6145 18 13.9116 18 12Z"></path></symbol>
    <symbol id="volume-up-line" viewBox="0 0 24 24"><path fill="none" d="M0 0h24v24H0z"></path><path d="M6.60282 10.0001L10 7.22056V16.7796L6.60282 14.0001H3V10.0001H6.60282ZM2 16.0001H5.88889L11.1834 20.3319C11.2727 20.405 11.3846 20.4449 11.5 20.4449C11.7761 20.4449 12 20.2211 12 19.9449V4.05519C12 3.93977 11.9601 3.8279 11.887 3.73857C11.7121 3.52485 11.3971 3.49335 11.1834 3.66821L5.88889 8.00007H2C1.44772 8.00007 1 8.44778 1 9.00007V15.0001C1 15.5524 1.44772 16.0001 2 16.0001ZM23 12C23 15.292 21.5539 18.2463 19.2622 20.2622L17.8445 18.8444C19.7758 17.1937 21 14.7398 21 12C21 9.26016 19.7758 6.80629 17.8445 5.15557L19.2622 3.73779C21.5539 5.75368 23 8.70795 23 12ZM18 12C18 10.0883 17.106 8.38548 15.7133 7.28673L14.2842 8.71584C15.3213 9.43855 16 10.64 16 12C16 13.36 15.3213 14.5614 14.2842 15.2841L15.7133 16.7132C17.106 15.6145 18 13.9116 18 12Z"></path></symbol>
    <symbol id="volume-mute-line" viewBox="0 0 24 24"><path fill="none" d="M0 0h24v24H0z"></path><path d="M10 7.22056L6.60282 10.0001H3V14.0001H6.60282L10 16.7796V7.22056ZM5.88889 16.0001H2C1.44772 16.0001 1 15.5524 1 15.0001V9.00007C1 8.44778 1.44772 8.00007 2 8.00007H5.88889L11.1834 3.66821C11.3971 3.49335 11.7121 3.52485 11.887 3.73857C11.9601 3.8279 12 3.93977 12 4.05519V19.9449C12 20.2211 11.7761 20.4449 11.5 20.4449C11.3846 20.4449 11.2727 20.405 11.1834 20.3319L5.88889 16.0001ZM20.4142 12.0001L23.9497 15.5356L22.5355 16.9498L19 13.4143L15.4645 16.9498L14.0503 15.5356L17.5858 12.0001L14.0503 8.46454L15.4645 7.05032L19 10.5859L22.5355 7.05032L23.9497 8.46454L20.4142 12.0001Z"></path></symbol>
    <symbol id="volume-mute-fill" viewBox="0 0 24 24"><path fill="none" d="M0 0h24v24H0z"></path><path d="M5.88889 16.0001H2C1.44772 16.0001 1 15.5524 1 15.0001V9.00007C1 8.44778 1.44772 8.00007 2 8.00007H5.88889L11.1834 3.66821C11.3971 3.49335 11.7121 3.52485 11.887 3.73857C11.9601 3.8279 12 3.93977 12 4.05519V19.9449C12 20.2211 11.7761 20.4449 11.5 20.4449C11.3846 20.4449 11.2727 20.405 11.1834 20.3319L5.88889 16.0001ZM20.4142 12.0001L23.9497 15.5356L22.5355 16.9498L19 13.4143L15.4645 16.9498L14.0503 15.5356L17.5858 12.0001L14.0503 8.46454L15.4645 7.05032L19 10.5859L22.5355 7.05032L23.9497 8.46454L20.4142 12.0001Z"></path></symbol>
    <symbol id="volume-down-line" viewBox="0 0 24 24"><path fill="none" d="M0 0h24v24H0z"></path><path d="M13 7.22056L9.60282 10.0001H6V14.0001H9.60282L13 16.7796V7.22056ZM8.88889 16.0001H5C4.44772 16.0001 4 15.5524 4 15.0001V9.00007C4 8.44778 4.44772 8.00007 5 8.00007H8.88889L14.1834 3.66821C14.3971 3.49335 14.7121 3.52485 14.887 3.73857C14.9601 3.8279 15 3.93977 15 4.05519V19.9449C15 20.2211 14.7761 20.4449 14.5 20.4449C14.3846 20.4449 14.2727 20.405 14.1834 20.3319L8.88889 16.0001ZM18.8631 16.5911L17.4411 15.1691C18.3892 14.4376 19 13.2902 19 12.0001C19 10.5697 18.2493 9.31476 17.1203 8.60766L18.5589 7.16906C20.0396 8.26166 21 10.0187 21 12.0001C21 13.8422 20.1698 15.4905 18.8631 16.5911Z"></path></symbol>
    <symbol id="volume-down-fill" viewBox="0 0 24 24"><path fill="none" d="M0 0h24v24H0z"></path><path d="M8.88889 16.0001H5C4.44772 16.0001 4 15.5524 4 15.0001V9.00007C4 8.44778 4.44772 8.00007 5 8.00007H8.88889L14.1834 3.66821C14.3971 3.49335 14.7121 3.52485 14.887 3.73857C14.9601 3.8279 15 3.93977 15 4.05519V19.9449C15 20.2211 14.7761 20.4449 14.5 20.4449C14.3846 20.4449 14.2727 20.405 14.1834 20.3319L8.88889 16.0001ZM18.8631 16.5911L17.4411 15.1691C18.3892 14.4376 19 13.2902 19 12.0001C19 10.5697 18.2493 9.31476 17.1203 8.60766L18.5589 7.16906C20.0396 8.26166 21 10.0187 21 12.0001C21 13.8422 20.1698 15.4905 18.8631 16.5911Z"></path></symbol>

    <symbol id="more-line" viewBox="0 0 24 24"><path fill="none" d="M0 0h24v24H0z"></path><path d="M12 3C11.175 3 10.5 3.675 10.5 4.5C10.5 5.325 11.175 6 12 6C12.825 6 13.5 5.325 13.5 4.5C13.5 3.675 12.825 3 12 3ZM12 18C11.175 18 10.5 18.675 10.5 19.5C10.5 20.325 11.175 21 12 21C12.825 21 13.5 20.325 13.5 19.5C13.5 18.675 12.825 18 12 18ZM12 10.5C11.175 10.5 10.5 11.175 10.5 12C10.5 12.825 11.175 13.5 12 13.5C12.825 13.5 13.5 12.825 13.5 12C13.5 11.175 12.825 10.5 12 10.5Z"></path></symbol>
    <symbol id="more-fill" viewBox="0 0 24 24"><path d="M12 3C10.9 3 10 3.9 10 5C10 6.1 10.9 7 12 7C13.1 7 14 6.1 14 5C14 3.9 13.1 3 12 3ZM12 17C10.9 17 10 17.9 10 19C10 20.1 10.9 21 12 21C13.1 21 14 20.1 14 19C14 17.9 13.1 17 12 17ZM12 10C10.9 10 10 10.9 10 12C10 13.1 10.9 14 12 14C13.1 14 14 13.1 14 12C14 10.9 13.1 10 12 10Z"></path></symbol>
  
    <symbol id="cloud-off-line" viewBox="0 0 24 24"><path fill="none" d="M0 0h24v24H0z"></path><path d="M3.51472 2.10051L22.6066 21.1924L21.1924 22.6066L19.1782 20.5924C18.503 20.8556 17.7684 21 17 21H7C3.68629 21 1 18.3137 1 15C1 12.3846 2.67346 10.16 5.00804 9.33857C5.0027 9.22639 5 9.11351 5 9C5 8.22228 5.12683 7.47418 5.36094 6.77527L2.10051 3.51472L3.51472 2.10051ZM7 9C7 9.08147 7.00193 9.16263 7.00578 9.24344L7.07662 10.7309L5.67183 11.2252C4.0844 11.7837 3 13.2889 3 15C3 17.2091 4.79086 19 7 19H17C17.1858 19 17.3687 18.9873 17.5478 18.9628L7.03043 8.44519C7.01032 8.62736 7 8.81247 7 9ZM12 2C15.866 2 19 5.13401 19 9C19 9.11351 18.9973 9.22639 18.992 9.33857C21.3265 10.16 23 12.3846 23 15C23 16.0883 22.7103 17.1089 22.2037 17.9889L20.7111 16.4955C20.8974 16.0335 21 15.5287 21 15C21 12.79 19.21 11 17 11C16.4711 11 15.9661 11.1027 15.5039 11.2892L14.0111 9.7964C14.8912 9.28978 15.9118 9 17 9C17 6.23858 14.7614 4 12 4C10.9295 4 9.93766 4.33639 9.12428 4.90922L7.69418 3.48056C8.88169 2.55284 10.3763 2 12 2Z"></path></symbol>
    <symbol id="spy-line" viewBox="0 0 24 24"><path fill="none" d="M0 0h24v24H0z"></path><path d="M17 13C19.2091 13 21 14.7909 21 17C21 19.2091 19.2091 21 17 21C14.7909 21 13 19.2091 13 17H11C11 19.2091 9.20914 21 7 21C4.79086 21 3 19.2091 3 17C3 14.7909 4.79086 13 7 13C8.48052 13 9.77317 13.8043 10.4648 14.9999H13.5352C14.2268 13.8043 15.5195 13 17 13ZM7 15C5.89543 15 5 15.8954 5 17C5 18.1046 5.89543 19 7 19C8.10457 19 9 18.1046 9 17C9 15.8954 8.10457 15 7 15ZM17 15C15.8954 15 15 15.8954 15 17C15 18.1046 15.8954 19 17 19C18.1046 19 19 18.1046 19 17C19 15.8954 18.1046 15 17 15ZM16 3C18.2091 3 20 4.79086 20 7V10H22V12H2V10H4V7C4 4.79086 5.79086 3 8 3H16ZM16 5H8C6.94564 5 6 5.95 6 7V10H18V7C18 5.94564 17.05 5 16 5Z"></path></symbol>

  </defs>
</svg>